<svg width="262" height="15" viewBox="0 0 262 15" fill="none" xmlns="http://www.w3.org/2000/svg">
<path d="M5.558 1.144C6.50067 1.144 7.34067 1.35867 8.078 1.788C8.81533 2.208 9.38467 2.796 9.786 3.552C10.1967 4.29867 10.402 5.15267 10.402 6.114C10.402 7.07533 10.1967 7.934 9.786 8.69C9.38467 9.43667 8.81533 10.0247 8.078 10.454C7.34067 10.874 6.50067 11.084 5.558 11.084C4.606 11.084 3.76133 10.874 3.024 10.454C2.28667 10.0247 1.71267 9.43667 1.302 8.69C0.891333 7.934 0.686 7.07533 0.686 6.114C0.686 5.15267 0.891333 4.29867 1.302 3.552C1.71267 2.796 2.28667 2.208 3.024 1.788C3.76133 1.35867 4.606 1.144 5.558 1.144ZM5.558 1.704C4.69 1.704 3.934 1.89067 3.29 2.264C2.646 2.628 2.15133 3.14133 1.806 3.804C1.46067 4.46667 1.288 5.23667 1.288 6.114C1.288 6.982 1.46067 7.752 1.806 8.424C2.15133 9.08667 2.646 9.60467 3.29 9.978C3.934 10.3513 4.69 10.538 5.558 10.538C6.41667 10.538 7.16333 10.3513 7.798 9.978C8.442 9.60467 8.93667 9.08667 9.282 8.424C9.62733 7.752 9.8 6.982 9.8 6.114C9.8 5.23667 9.62733 4.46667 9.282 3.804C8.93667 3.14133 8.442 2.628 7.798 2.264C7.16333 1.89067 6.41667 1.704 5.558 1.704ZM5.53 2.866C4.97 2.866 4.45667 2.99667 3.99 3.258C3.53267 3.51933 3.16867 3.89733 2.898 4.392C2.62733 4.87733 2.492 5.44667 2.492 6.1C2.492 6.75333 2.62733 7.32733 2.898 7.822C3.16867 8.30733 3.53267 8.68533 3.99 8.956C4.45667 9.21733 4.97 9.348 5.53 9.348C6.23 9.348 6.83667 9.16133 7.35 8.788C7.86333 8.40533 8.21333 7.89667 8.4 7.262H7.224C6.944 8.03667 6.37933 8.424 5.53 8.424C4.97 8.424 4.51267 8.22333 4.158 7.822C3.80333 7.42067 3.626 6.85133 3.626 6.114C3.626 5.36733 3.80333 4.79333 4.158 4.392C4.51267 3.99067 4.97 3.79 5.53 3.79C5.94067 3.79 6.29533 3.89267 6.594 4.098C6.89267 4.294 7.10267 4.57867 7.224 4.952H8.4C8.22267 4.28933 7.87733 3.776 7.364 3.412C6.85067 3.048 6.23933 2.866 5.53 2.866ZM15.5343 9.978C16.7196 9.026 17.6483 8.24667 18.3203 7.64C18.9923 7.024 19.557 6.38467 20.0143 5.722C20.481 5.05 20.7143 4.392 20.7143 3.748C20.7143 3.14133 20.565 2.66533 20.2663 2.32C19.977 1.96533 19.5056 1.788 18.8523 1.788C18.2176 1.788 17.723 1.98867 17.3683 2.39C17.023 2.782 16.8363 3.30933 16.8083 3.972H15.5763C15.6136 2.92667 15.931 2.11933 16.5283 1.55C17.1256 0.980666 17.8956 0.695999 18.8383 0.695999C19.7996 0.695999 20.5603 0.961999 21.1203 1.494C21.6896 2.026 21.9743 2.75867 21.9743 3.692C21.9743 4.46667 21.741 5.22267 21.2743 5.96C20.817 6.688 20.2943 7.332 19.7063 7.892C19.1183 8.44267 18.367 9.08667 17.4523 9.824H22.2683V10.888H15.5343V9.978ZM23.741 5.834C23.741 4.22867 24.0024 2.978 24.525 2.082C25.0477 1.17667 25.9624 0.724 27.269 0.724C28.5664 0.724 29.4764 1.17667 29.999 2.082C30.5217 2.978 30.783 4.22867 30.783 5.834C30.783 7.46733 30.5217 8.73667 29.999 9.642C29.4764 10.5473 28.5664 11 27.269 11C25.9624 11 25.0477 10.5473 24.525 9.642C24.0024 8.73667 23.741 7.46733 23.741 5.834ZM29.523 5.834C29.523 5.022 29.467 4.336 29.355 3.776C29.2524 3.20667 29.033 2.74933 28.697 2.404C28.3704 2.05867 27.8944 1.886 27.269 1.886C26.6344 1.886 26.149 2.05867 25.813 2.404C25.4864 2.74933 25.267 3.20667 25.155 3.776C25.0524 4.336 25.001 5.022 25.001 5.834C25.001 6.674 25.0524 7.37867 25.155 7.948C25.267 8.51733 25.4864 8.97467 25.813 9.32C26.149 9.66533 26.6344 9.838 27.269 9.838C27.8944 9.838 28.3704 9.66533 28.697 9.32C29.033 8.97467 29.2524 8.51733 29.355 7.948C29.467 7.37867 29.523 6.674 29.523 5.834ZM32.3781 9.978C33.5634 9.026 34.4921 8.24667 35.1641 7.64C35.8361 7.024 36.4007 6.38467 36.8581 5.722C37.3247 5.05 37.5581 4.392 37.5581 3.748C37.5581 3.14133 37.4087 2.66533 37.1101 2.32C36.8207 1.96533 36.3494 1.788 35.6961 1.788C35.0614 1.788 34.5667 1.98867 34.2121 2.39C33.8667 2.782 33.6801 3.30933 33.6521 3.972H32.4201C32.4574 2.92667 32.7747 2.11933 33.3721 1.55C33.9694 0.980666 34.7394 0.695999 35.6821 0.695999C36.6434 0.695999 37.4041 0.961999 37.9641 1.494C38.5334 2.026 38.8181 2.75867 38.8181 3.692C38.8181 4.46667 38.5847 5.22267 38.1181 5.96C37.6607 6.688 37.1381 7.332 36.5501 7.892C35.9621 8.44267 35.2107 9.08667 34.2961 9.824H39.1121V10.888H32.3781V9.978ZM40.5848 5.834C40.5848 4.22867 40.8461 2.978 41.3688 2.082C41.8915 1.17667 42.8061 0.724 44.1128 0.724C45.4101 0.724 46.3201 1.17667 46.8428 2.082C47.3655 2.978 47.6268 4.22867 47.6268 5.834C47.6268 7.46733 47.3655 8.73667 46.8428 9.642C46.3201 10.5473 45.4101 11 44.1128 11C42.8061 11 41.8915 10.5473 41.3688 9.642C40.8461 8.73667 40.5848 7.46733 40.5848 5.834ZM46.3668 5.834C46.3668 5.022 46.3108 4.336 46.1988 3.776C46.0961 3.20667 45.8768 2.74933 45.5408 2.404C45.2141 2.05867 44.7381 1.886 44.1128 1.886C43.4781 1.886 42.9928 2.05867 42.6568 2.404C42.3301 2.74933 42.1108 3.20667 41.9988 3.776C41.8961 4.336 41.8448 5.022 41.8448 5.834C41.8448 6.674 41.8961 7.37867 41.9988 7.948C42.1108 8.51733 42.3301 8.97467 42.6568 9.32C42.9928 9.66533 43.4781 9.838 44.1128 9.838C44.7381 9.838 45.2141 9.66533 45.5408 9.32C45.8768 8.97467 46.0961 8.51733 46.1988 7.948C46.3108 7.37867 46.3668 6.674 46.3668 5.834ZM56.5858 2.026C57.6218 2.026 58.5225 2.222 59.2878 2.614C60.0531 3.006 60.6411 3.55667 61.0518 4.266C61.4625 4.966 61.6678 5.778 61.6678 6.702C61.6678 7.43933 61.5465 8.14867 61.3038 8.83C61.0611 9.502 60.7065 10.048 60.2398 10.468C59.7825 10.888 59.2458 11.098 58.6298 11.098C58.1631 11.098 57.8038 10.9813 57.5518 10.748C57.2998 10.5147 57.1551 10.1973 57.1178 9.796C56.8285 10.1973 56.4598 10.5147 56.0118 10.748C55.5731 10.9813 55.1065 11.098 54.6118 11.098C53.9025 11.098 53.3425 10.8833 52.9318 10.454C52.5305 10.0153 52.3298 9.42733 52.3298 8.69C52.3298 7.99 52.4745 7.33667 52.7638 6.73C53.0625 6.12333 53.4731 5.638 53.9958 5.274C54.5185 4.90067 55.1111 4.714 55.7738 4.714C56.6605 4.714 57.2578 5.05 57.5658 5.722L57.7198 4.854H58.8258L58.1258 8.9C58.0978 9.07733 58.0838 9.24067 58.0838 9.39C58.0838 9.95 58.3311 10.23 58.8258 10.23C59.1991 10.23 59.5211 10.0527 59.7918 9.698C60.0718 9.34333 60.2818 8.9 60.4218 8.368C60.5618 7.82667 60.6318 7.29467 60.6318 6.772C60.6318 5.54933 60.2631 4.602 59.5258 3.93C58.7978 3.258 57.7665 2.922 56.4318 2.922C55.3211 2.922 54.3178 3.19267 53.4218 3.734C52.5351 4.266 51.8398 4.99867 51.3358 5.932C50.8318 6.86533 50.5798 7.89667 50.5798 9.026C50.5705 10.258 50.9391 11.2053 51.6858 11.868C52.4325 12.54 53.4685 12.876 54.7938 12.876C55.6711 12.876 56.4458 12.7173 57.1178 12.4L57.2858 13.268C56.4551 13.6133 55.5405 13.786 54.5418 13.786C53.5431 13.786 52.6611 13.5947 51.8958 13.212C51.1398 12.8387 50.5518 12.2973 50.1318 11.588C49.7211 10.888 49.5158 10.0713 49.5158 9.138C49.5158 7.822 49.8191 6.62267 50.4258 5.54C51.0325 4.448 51.8725 3.58933 52.9458 2.964C54.0285 2.33867 55.2418 2.026 56.5858 2.026ZM54.9898 10.104C55.4098 10.104 55.7971 9.98267 56.1518 9.74C56.5065 9.488 56.7865 9.152 56.9918 8.732C57.1971 8.30267 57.2998 7.836 57.2998 7.332C57.2998 6.84667 57.1645 6.45467 56.8938 6.156C56.6325 5.848 56.2591 5.694 55.7738 5.694C55.3258 5.694 54.9291 5.82933 54.5838 6.1C54.2478 6.36133 53.9865 6.71133 53.7998 7.15C53.6131 7.57933 53.5198 8.02733 53.5198 8.494C53.5198 8.98867 53.6458 9.38067 53.8978 9.67C54.1498 9.95933 54.5138 10.104 54.9898 10.104ZM73.9835 3.328L71.5895 11H70.2735L68.4255 4.91L66.5775 11H65.2615L62.8535 3.328H64.1555L65.9195 9.768L67.8235 3.328H69.1255L70.9875 9.782L72.7235 3.328H73.9835ZM82.2479 6.87C82.2479 7.11267 82.2339 7.36933 82.2059 7.64H76.0739C76.1206 8.396 76.3773 8.98867 76.8439 9.418C77.3199 9.838 77.8939 10.048 78.5659 10.048C79.1166 10.048 79.5739 9.922 79.9379 9.67C80.3113 9.40867 80.5726 9.06333 80.7219 8.634H82.0939C81.8886 9.37133 81.4779 9.97333 80.8619 10.44C80.2459 10.8973 79.4806 11.126 78.5659 11.126C77.8379 11.126 77.1846 10.9627 76.6059 10.636C76.0366 10.3093 75.5886 9.84733 75.2619 9.25C74.9353 8.64333 74.7719 7.94333 74.7719 7.15C74.7719 6.35667 74.9306 5.66133 75.2479 5.064C75.5653 4.46667 76.0086 4.00933 76.5779 3.692C77.1566 3.36533 77.8193 3.202 78.5659 3.202C79.2939 3.202 79.9379 3.36067 80.4979 3.678C81.0579 3.99533 81.4873 4.434 81.7859 4.994C82.0939 5.54467 82.2479 6.17 82.2479 6.87ZM80.9319 6.604C80.9319 6.11867 80.8246 5.70333 80.6099 5.358C80.3953 5.00333 80.1013 4.73733 79.7279 4.56C79.3639 4.37333 78.9579 4.28 78.5099 4.28C77.8659 4.28 77.3153 4.48533 76.8579 4.896C76.4099 5.30667 76.1533 5.876 76.0879 6.604H80.9319ZM85.2036 4.756C85.4649 4.29867 85.8476 3.92533 86.3516 3.636C86.8556 3.34667 87.4296 3.202 88.0736 3.202C88.7642 3.202 89.3849 3.36533 89.9356 3.692C90.4862 4.01867 90.9202 4.48067 91.2376 5.078C91.5549 5.666 91.7136 6.352 91.7136 7.136C91.7136 7.91067 91.5549 8.60133 91.2376 9.208C90.9202 9.81467 90.4816 10.286 89.9216 10.622C89.3709 10.958 88.7549 11.126 88.0736 11.126C87.4109 11.126 86.8276 10.9813 86.3236 10.692C85.8289 10.4027 85.4556 10.034 85.2036 9.586V11H83.9296V0.64H85.2036V4.756ZM90.4116 7.136C90.4116 6.55733 90.2949 6.05333 90.0616 5.624C89.8282 5.19467 89.5109 4.868 89.1096 4.644C88.7176 4.42 88.2836 4.308 87.8076 4.308C87.3409 4.308 86.9069 4.42467 86.5056 4.658C86.1136 4.882 85.7962 5.21333 85.5536 5.652C85.3202 6.08133 85.2036 6.58067 85.2036 7.15C85.2036 7.72867 85.3202 8.23733 85.5536 8.676C85.7962 9.10533 86.1136 9.43667 86.5056 9.67C86.9069 9.894 87.3409 10.006 87.8076 10.006C88.2836 10.006 88.7176 9.894 89.1096 9.67C89.5109 9.43667 89.8282 9.10533 90.0616 8.676C90.2949 8.23733 90.4116 7.724 90.4116 7.136ZM96.7365 11.126C96.0178 11.126 95.3645 10.9627 94.7765 10.636C94.1978 10.3093 93.7405 9.84733 93.4045 9.25C93.0778 8.64333 92.9145 7.94333 92.9145 7.15C92.9145 6.366 93.0825 5.67533 93.4185 5.078C93.7638 4.47133 94.2305 4.00933 94.8185 3.692C95.4065 3.36533 96.0645 3.202 96.7925 3.202C97.5205 3.202 98.1785 3.36533 98.7665 3.692C99.3545 4.00933 99.8165 4.46667 100.153 5.064C100.498 5.66133 100.671 6.35667 100.671 7.15C100.671 7.94333 100.493 8.64333 100.139 9.25C99.7932 9.84733 99.3218 10.3093 98.7245 10.636C98.1272 10.9627 97.4645 11.126 96.7365 11.126ZM96.7365 10.006C97.1938 10.006 97.6232 9.89867 98.0245 9.684C98.4258 9.46933 98.7478 9.14733 98.9905 8.718C99.2425 8.28867 99.3685 7.766 99.3685 7.15C99.3685 6.534 99.2472 6.01133 99.0045 5.582C98.7618 5.15267 98.4445 4.83533 98.0525 4.63C97.6605 4.41533 97.2358 4.308 96.7785 4.308C96.3118 4.308 95.8825 4.41533 95.4905 4.63C95.1078 4.83533 94.7998 5.15267 94.5665 5.582C94.3332 6.01133 94.2165 6.534 94.2165 7.15C94.2165 7.77533 94.3285 8.30267 94.5525 8.732C94.7858 9.16133 95.0938 9.48333 95.4765 9.698C95.8592 9.90333 96.2792 10.006 96.7365 10.006ZM105.202 9.824L107.582 3.328H108.94L105.93 11H104.446L101.436 3.328H102.808L105.202 9.824ZM110.851 2.082C110.609 2.082 110.403 1.998 110.235 1.83C110.067 1.662 109.983 1.45667 109.983 1.214C109.983 0.971333 110.067 0.766 110.235 0.598C110.403 0.43 110.609 0.345999 110.851 0.345999C111.085 0.345999 111.281 0.43 111.439 0.598C111.607 0.766 111.691 0.971333 111.691 1.214C111.691 1.45667 111.607 1.662 111.439 1.83C111.281 1.998 111.085 2.082 110.851 2.082ZM111.467 3.328V11H110.193V3.328H111.467ZM116.985 11.126C116.266 11.126 115.613 10.9627 115.025 10.636C114.446 10.3093 113.989 9.84733 113.653 9.25C113.326 8.64333 113.163 7.94333 113.163 7.15C113.163 6.366 113.331 5.67533 113.667 5.078C114.012 4.47133 114.479 4.00933 115.067 3.692C115.655 3.36533 116.313 3.202 117.041 3.202C117.769 3.202 118.427 3.36533 119.015 3.692C119.603 4.00933 120.065 4.46667 120.401 5.064C120.746 5.66133 120.919 6.35667 120.919 7.15C120.919 7.94333 120.741 8.64333 120.387 9.25C120.041 9.84733 119.57 10.3093 118.973 10.636C118.375 10.9627 117.713 11.126 116.985 11.126ZM116.985 10.006C117.442 10.006 117.871 9.89867 118.273 9.684C118.674 9.46933 118.996 9.14733 119.239 8.718C119.491 8.28867 119.617 7.766 119.617 7.15C119.617 6.534 119.495 6.01133 119.253 5.582C119.01 5.15267 118.693 4.83533 118.301 4.63C117.909 4.41533 117.484 4.308 117.027 4.308C116.56 4.308 116.131 4.41533 115.739 4.63C115.356 4.83533 115.048 5.15267 114.815 5.582C114.581 6.01133 114.465 6.534 114.465 7.15C114.465 7.77533 114.577 8.30267 114.801 8.732C115.034 9.16133 115.342 9.48333 115.725 9.698C116.107 9.90333 116.527 10.006 116.985 10.006ZM123 11.084C122.757 11.084 122.552 11 122.384 10.832C122.216 10.664 122.132 10.4587 122.132 10.216C122.132 9.97333 122.216 9.768 122.384 9.6C122.552 9.432 122.757 9.348 123 9.348C123.233 9.348 123.429 9.432 123.588 9.6C123.756 9.768 123.84 9.97333 123.84 10.216C123.84 10.4587 123.756 10.664 123.588 10.832C123.429 11 123.233 11.084 123 11.084ZM135.034 8.83H130.778L129.994 11H128.649L132.178 1.298H133.648L137.162 11H135.818L135.034 8.83ZM134.67 7.794L132.906 2.866L131.142 7.794H134.67ZM139.973 0.64V11H138.699V0.64H139.973ZM143.418 0.64V11H142.144V0.64H143.418ZM154.46 11L152.136 7.01H150.596V11H149.322V1.242H152.472C153.209 1.242 153.83 1.368 154.334 1.62C154.847 1.872 155.23 2.21267 155.482 2.642C155.734 3.07133 155.86 3.56133 155.86 4.112C155.86 4.784 155.664 5.37667 155.272 5.89C154.889 6.40333 154.311 6.744 153.536 6.912L155.986 11H154.46ZM150.596 5.988H152.472C153.163 5.988 153.681 5.82 154.026 5.484C154.371 5.13867 154.544 4.68133 154.544 4.112C154.544 3.53333 154.371 3.08533 154.026 2.768C153.69 2.45067 153.172 2.292 152.472 2.292H150.596V5.988ZM158.498 2.082C158.255 2.082 158.05 1.998 157.882 1.83C157.714 1.662 157.63 1.45667 157.63 1.214C157.63 0.971333 157.714 0.766 157.882 0.598C158.05 0.43 158.255 0.345999 158.498 0.345999C158.731 0.345999 158.927 0.43 159.086 0.598C159.254 0.766 159.338 0.971333 159.338 1.214C159.338 1.45667 159.254 1.662 159.086 1.83C158.927 1.998 158.731 2.082 158.498 2.082ZM159.114 3.328V11H157.84V3.328H159.114ZM164.449 3.202C165.112 3.202 165.69 3.34667 166.185 3.636C166.689 3.92533 167.062 4.28933 167.305 4.728V3.328H168.593V11.168C168.593 11.868 168.444 12.4887 168.145 13.03C167.846 13.5807 167.417 14.01 166.857 14.318C166.306 14.626 165.662 14.78 164.925 14.78C163.917 14.78 163.077 14.542 162.405 14.066C161.733 13.59 161.336 12.9413 161.215 12.12H162.475C162.615 12.5867 162.904 12.96 163.343 13.24C163.782 13.5293 164.309 13.674 164.925 13.674C165.625 13.674 166.194 13.4547 166.633 13.016C167.081 12.5773 167.305 11.9613 167.305 11.168V9.558C167.053 10.006 166.68 10.3793 166.185 10.678C165.69 10.9767 165.112 11.126 164.449 11.126C163.768 11.126 163.147 10.958 162.587 10.622C162.036 10.286 161.602 9.81467 161.285 9.208C160.968 8.60133 160.809 7.91067 160.809 7.136C160.809 6.352 160.968 5.666 161.285 5.078C161.602 4.48067 162.036 4.01867 162.587 3.692C163.147 3.36533 163.768 3.202 164.449 3.202ZM167.305 7.15C167.305 6.57133 167.188 6.06733 166.955 5.638C166.722 5.20867 166.404 4.882 166.003 4.658C165.611 4.42467 165.177 4.308 164.701 4.308C164.225 4.308 163.791 4.42 163.399 4.644C163.007 4.868 162.694 5.19467 162.461 5.624C162.228 6.05333 162.111 6.55733 162.111 7.136C162.111 7.724 162.228 8.23733 162.461 8.676C162.694 9.10533 163.007 9.43667 163.399 9.67C163.791 9.894 164.225 10.006 164.701 10.006C165.177 10.006 165.611 9.894 166.003 9.67C166.404 9.43667 166.722 9.10533 166.955 8.676C167.188 8.23733 167.305 7.72867 167.305 7.15ZM174.554 3.188C175.133 3.188 175.655 3.314 176.122 3.566C176.589 3.80867 176.953 4.17733 177.214 4.672C177.485 5.16667 177.62 5.76867 177.62 6.478V11H176.36V6.66C176.36 5.89467 176.169 5.31133 175.786 4.91C175.403 4.49933 174.881 4.294 174.218 4.294C173.546 4.294 173.009 4.504 172.608 4.924C172.216 5.344 172.02 5.95533 172.02 6.758V11H170.746V0.64H172.02V4.42C172.272 4.028 172.617 3.72467 173.056 3.51C173.504 3.29533 174.003 3.188 174.554 3.188ZM181.255 4.378V8.9C181.255 9.27333 181.334 9.53933 181.493 9.698C181.652 9.84733 181.927 9.922 182.319 9.922H183.257V11H182.109C181.4 11 180.868 10.8367 180.513 10.51C180.158 10.1833 179.981 9.64667 179.981 8.9V4.378H178.987V3.328H179.981V1.396H181.255V3.328H183.257V4.378H181.255ZM187.517 11.126C186.929 11.126 186.401 11.028 185.935 10.832C185.468 10.6267 185.099 10.3467 184.829 9.992C184.558 9.628 184.409 9.21267 184.381 8.746H185.697C185.734 9.12867 185.911 9.44133 186.229 9.684C186.555 9.92667 186.98 10.048 187.503 10.048C187.988 10.048 188.371 9.94067 188.651 9.726C188.931 9.51133 189.071 9.24067 189.071 8.914C189.071 8.578 188.921 8.33067 188.623 8.172C188.324 8.004 187.862 7.84067 187.237 7.682C186.667 7.53267 186.201 7.38333 185.837 7.234C185.482 7.07533 185.174 6.84667 184.913 6.548C184.661 6.24 184.535 5.83867 184.535 5.344C184.535 4.952 184.651 4.59267 184.885 4.266C185.118 3.93933 185.449 3.68267 185.879 3.496C186.308 3.3 186.798 3.202 187.349 3.202C188.198 3.202 188.884 3.41667 189.407 3.846C189.929 4.27533 190.209 4.86333 190.247 5.61H188.973C188.945 5.20867 188.781 4.88667 188.483 4.644C188.193 4.40133 187.801 4.28 187.307 4.28C186.849 4.28 186.485 4.378 186.215 4.574C185.944 4.77 185.809 5.02667 185.809 5.344C185.809 5.596 185.888 5.806 186.047 5.974C186.215 6.13267 186.42 6.26333 186.663 6.366C186.915 6.45933 187.26 6.56667 187.699 6.688C188.249 6.83733 188.697 6.98667 189.043 7.136C189.388 7.276 189.682 7.49067 189.925 7.78C190.177 8.06933 190.307 8.44733 190.317 8.914C190.317 9.334 190.2 9.712 189.967 10.048C189.733 10.384 189.402 10.65 188.973 10.846C188.553 11.0327 188.067 11.126 187.517 11.126ZM200.986 11L198.662 7.01H197.122V11H195.848V1.242H198.998C199.735 1.242 200.356 1.368 200.86 1.62C201.373 1.872 201.756 2.21267 202.008 2.642C202.26 3.07133 202.386 3.56133 202.386 4.112C202.386 4.784 202.19 5.37667 201.798 5.89C201.415 6.40333 200.836 6.744 200.062 6.912L202.512 11H200.986ZM197.122 5.988H198.998C199.688 5.988 200.206 5.82 200.552 5.484C200.897 5.13867 201.07 4.68133 201.07 4.112C201.07 3.53333 200.897 3.08533 200.552 2.768C200.216 2.45067 199.698 2.292 198.998 2.292H197.122V5.988ZM211.365 6.87C211.365 7.11267 211.351 7.36933 211.323 7.64H205.191C205.238 8.396 205.494 8.98867 205.961 9.418C206.437 9.838 207.011 10.048 207.683 10.048C208.234 10.048 208.691 9.922 209.055 9.67C209.428 9.40867 209.69 9.06333 209.839 8.634H211.211C211.006 9.37133 210.595 9.97333 209.979 10.44C209.363 10.8973 208.598 11.126 207.683 11.126C206.955 11.126 206.302 10.9627 205.723 10.636C205.154 10.3093 204.706 9.84733 204.379 9.25C204.052 8.64333 203.889 7.94333 203.889 7.15C203.889 6.35667 204.048 5.66133 204.365 5.064C204.682 4.46667 205.126 4.00933 205.695 3.692C206.274 3.36533 206.936 3.202 207.683 3.202C208.411 3.202 209.055 3.36067 209.615 3.678C210.175 3.99533 210.604 4.434 210.903 4.994C211.211 5.54467 211.365 6.17 211.365 6.87ZM210.049 6.604C210.049 6.11867 209.942 5.70333 209.727 5.358C209.512 5.00333 209.218 4.73733 208.845 4.56C208.481 4.37333 208.075 4.28 207.627 4.28C206.983 4.28 206.432 4.48533 205.975 4.896C205.527 5.30667 205.27 5.876 205.205 6.604H210.049ZM215.763 11.126C215.175 11.126 214.647 11.028 214.181 10.832C213.714 10.6267 213.345 10.3467 213.075 9.992C212.804 9.628 212.655 9.21267 212.627 8.746H213.943C213.98 9.12867 214.157 9.44133 214.475 9.684C214.801 9.92667 215.226 10.048 215.749 10.048C216.234 10.048 216.617 9.94067 216.897 9.726C217.177 9.51133 217.317 9.24067 217.317 8.914C217.317 8.578 217.167 8.33067 216.869 8.172C216.57 8.004 216.108 7.84067 215.483 7.682C214.913 7.53267 214.447 7.38333 214.083 7.234C213.728 7.07533 213.42 6.84667 213.159 6.548C212.907 6.24 212.781 5.83867 212.781 5.344C212.781 4.952 212.897 4.59267 213.131 4.266C213.364 3.93933 213.695 3.68267 214.125 3.496C214.554 3.3 215.044 3.202 215.595 3.202C216.444 3.202 217.13 3.41667 217.653 3.846C218.175 4.27533 218.455 4.86333 218.493 5.61H217.219C217.191 5.20867 217.027 4.88667 216.729 4.644C216.439 4.40133 216.047 4.28 215.553 4.28C215.095 4.28 214.731 4.378 214.461 4.574C214.19 4.77 214.055 5.02667 214.055 5.344C214.055 5.596 214.134 5.806 214.293 5.974C214.461 6.13267 214.666 6.26333 214.909 6.366C215.161 6.45933 215.506 6.56667 215.945 6.688C216.495 6.83733 216.943 6.98667 217.289 7.136C217.634 7.276 217.928 7.49067 218.171 7.78C218.423 8.06933 218.553 8.44733 218.563 8.914C218.563 9.334 218.446 9.712 218.213 10.048C217.979 10.384 217.648 10.65 217.219 10.846C216.799 11.0327 216.313 11.126 215.763 11.126ZM227.361 6.87C227.361 7.11267 227.347 7.36933 227.319 7.64H221.187C221.234 8.396 221.491 8.98867 221.957 9.418C222.433 9.838 223.007 10.048 223.679 10.048C224.23 10.048 224.687 9.922 225.051 9.67C225.425 9.40867 225.686 9.06333 225.835 8.634H227.207C227.002 9.37133 226.591 9.97333 225.975 10.44C225.359 10.8973 224.594 11.126 223.679 11.126C222.951 11.126 222.298 10.9627 221.719 10.636C221.15 10.3093 220.702 9.84733 220.375 9.25C220.049 8.64333 219.885 7.94333 219.885 7.15C219.885 6.35667 220.044 5.66133 220.361 5.064C220.679 4.46667 221.122 4.00933 221.691 3.692C222.27 3.36533 222.933 3.202 223.679 3.202C224.407 3.202 225.051 3.36067 225.611 3.678C226.171 3.99533 226.601 4.434 226.899 4.994C227.207 5.54467 227.361 6.17 227.361 6.87ZM226.045 6.604C226.045 6.11867 225.938 5.70333 225.723 5.358C225.509 5.00333 225.215 4.73733 224.841 4.56C224.477 4.37333 224.071 4.28 223.623 4.28C222.979 4.28 222.429 4.48533 221.971 4.896C221.523 5.30667 221.267 5.876 221.201 6.604H226.045ZM230.317 4.574C230.541 4.13533 230.858 3.79467 231.269 3.552C231.689 3.30933 232.198 3.188 232.795 3.188V4.504H232.459C231.031 4.504 230.317 5.27867 230.317 6.828V11H229.043V3.328H230.317V4.574ZM237.122 9.824L239.502 3.328H240.86L237.85 11H236.366L233.356 3.328H234.728L237.122 9.824ZM249.113 6.87C249.113 7.11267 249.099 7.36933 249.071 7.64H242.939C242.986 8.396 243.242 8.98867 243.709 9.418C244.185 9.838 244.759 10.048 245.431 10.048C245.982 10.048 246.439 9.922 246.803 9.67C247.176 9.40867 247.438 9.06333 247.587 8.634H248.959C248.754 9.37133 248.343 9.97333 247.727 10.44C247.111 10.8973 246.346 11.126 245.431 11.126C244.703 11.126 244.05 10.9627 243.471 10.636C242.902 10.3093 242.454 9.84733 242.127 9.25C241.8 8.64333 241.637 7.94333 241.637 7.15C241.637 6.35667 241.796 5.66133 242.113 5.064C242.43 4.46667 242.874 4.00933 243.443 3.692C244.022 3.36533 244.684 3.202 245.431 3.202C246.159 3.202 246.803 3.36067 247.363 3.678C247.923 3.99533 248.352 4.434 248.651 4.994C248.959 5.54467 249.113 6.17 249.113 6.87ZM247.797 6.604C247.797 6.11867 247.69 5.70333 247.475 5.358C247.26 5.00333 246.966 4.73733 246.593 4.56C246.229 4.37333 245.823 4.28 245.375 4.28C244.731 4.28 244.18 4.48533 243.723 4.896C243.275 5.30667 243.018 5.876 242.953 6.604H247.797ZM250.319 7.136C250.319 6.352 250.477 5.666 250.795 5.078C251.112 4.48067 251.546 4.01867 252.097 3.692C252.657 3.36533 253.282 3.202 253.973 3.202C254.57 3.202 255.125 3.342 255.639 3.622C256.152 3.89267 256.544 4.252 256.815 4.7V0.64H258.103V11H256.815V9.558C256.563 10.0153 256.189 10.3933 255.695 10.692C255.2 10.9813 254.621 11.126 253.959 11.126C253.277 11.126 252.657 10.958 252.097 10.622C251.546 10.286 251.112 9.81467 250.795 9.208C250.477 8.60133 250.319 7.91067 250.319 7.136ZM256.815 7.15C256.815 6.57133 256.698 6.06733 256.465 5.638C256.231 5.20867 255.914 4.882 255.513 4.658C255.121 4.42467 254.687 4.308 254.211 4.308C253.735 4.308 253.301 4.42 252.909 4.644C252.517 4.868 252.204 5.19467 251.971 5.624C251.737 6.05333 251.621 6.55733 251.621 7.136C251.621 7.724 251.737 8.23733 251.971 8.676C252.204 9.10533 252.517 9.43667 252.909 9.67C253.301 9.894 253.735 10.006 254.211 10.006C254.687 10.006 255.121 9.894 255.513 9.67C255.914 9.43667 256.231 9.10533 256.465 8.676C256.698 8.23733 256.815 7.72867 256.815 7.15ZM260.662 11.084C260.419 11.084 260.214 11 260.046 10.832C259.878 10.664 259.794 10.4587 259.794 10.216C259.794 9.97333 259.878 9.768 260.046 9.6C260.214 9.432 260.419 9.348 260.662 9.348C260.895 9.348 261.091 9.432 261.25 9.6C261.418 9.768 261.502 9.97333 261.502 10.216C261.502 10.4587 261.418 10.664 261.25 10.832C261.091 11 260.895 11.084 260.662 11.084Z" fill="#B5C096"/>
</svg>
